<mxfile host="app.diagrams.net" modified="2023-09-21T16:43:02.673Z" agent="Mozilla/5.0 (Macintosh; Intel Mac OS X 10.11; rv:78.0) Gecko/20100101 Firefox/78.0" version="21.8.0" etag="1dNbJp2eHrPQainmBFTG" type="github">
  <diagram name="Страница — 1" id="-JiTcN7LNbpt2DjfVKVH">
    <mxGraphModel>
      <root>
        <mxCell id="0" />
        <mxCell id="1" parent="0" />
      </root>
    </mxGraphModel>
  </diagram>
</mxfile>
